<svg width="34" height="36" viewBox="0 0 34 36" fill="none" xmlns="http://www.w3.org/2000/svg">
<path d="M0.913254 1.80044C0.521587 2.20019 0.294922 2.82257 0.294922 3.62857V32.3781C0.294922 33.1841 0.521587 33.8064 0.913254 34.2062L1.00992 34.2939L17.5332 18.1902V17.8099L1.00992 1.7062L0.913254 1.80044Z" fill="#111111"/>
<path d="M25.0349 23.5605L19.5332 18.1899V17.8097L25.0415 12.439L25.1649 12.5089L31.6882 16.1278C33.5499 17.1548 33.5499 18.8448 31.6882 19.8783L25.1649 23.4907L25.0349 23.5605Z" fill="#111111"/>
<path d="M24.1647 24.4907L18.5331 18.9998L1.91309 35.206C2.53142 35.8397 3.53975 35.9161 4.68642 35.2823L24.1647 24.4907Z" fill="#111111"/>
<path d="M24.1647 11.5091L4.68642 0.717505C3.53975 0.0902549 2.53142 0.166628 1.91309 0.800378L18.5331 17L24.1647 11.5091Z" fill="#111111"/>
</svg>
